<?xml version="1.0" encoding="UTF-8"?>
<svg id="Layer_1" xmlns="http://www.w3.org/2000/svg" xmlns:xlink="http://www.w3.org/1999/xlink" version="1.1" viewBox="0 0 562.1 65.3">
  <!-- Generator: Adobe Illustrator 30.1.0, SVG Export Plug-In . SVG Version: 2.1.1 Build 136)  -->
  <defs>
    <style>
      .st0 {
        fill-rule: evenodd;
      }

      .st0, .st1 {
        fill: #ededed;
      }

      .st2 {
        fill: url(#linear-gradient);
      }

      .st3 {
        fill: #ffe534;
      }
    </style>
    <linearGradient id="linear-gradient" x1="216.1" y1="13.1" x2="238.2" y2="74.6" gradientTransform="translate(-12 -90.4) rotate(21.2)" gradientUnits="userSpaceOnUse">
      <stop offset="0" stop-color="#ffb703"/>
      <stop offset=".2" stop-color="#f9b303"/>
      <stop offset=".3" stop-color="#ebaa03"/>
      <stop offset=".6" stop-color="#d39c04"/>
      <stop offset=".8" stop-color="#b18705"/>
      <stop offset="1" stop-color="#866d06"/>
      <stop offset="1" stop-color="#856c07"/>
    </linearGradient>
  </defs>
  <path class="st1" d="M47.4,7.2l-13.3,31.4L20.7,7.2H0v51.7h16.7v-25.2l10.4,25.2h13.3l10.4-25.2v25.2h0L67.6,7.2h-20.2Z"/>
  <path class="st1" d="M67.4,58.9h27.2l-3.4-9.5-3.4-9.5-6.8-18.9-6.9,18.9-6.9,18.9Z"/>
  <g>
    <path class="st0" d="M135.1,10.6c-5-2.3-11.4-3.4-19.3-3.4h-21.3l16.7,51.7h4.4c7,0,12.9-1,17.8-3.1,4.9-2.1,8.6-5,11.1-8.9,2.5-3.9,3.7-8.5,3.7-13.9s-.6-7.7-1.9-10.9c-2.9-6.1-6.1-8.5-11.3-11.5ZM116.1,44.4c4.5,0,7.9-.9,10.1-2.8,2.2-1.9,3.3-4.8,3.3-8.6s-1.1-6.6-3.2-8.4c-2.2-1.8-5.5-2.8-9.9-2.8h-7.4v22.6h7.1Z"/>
    <path class="st1" d="M292.1,7.2c5.8,0,10.8,1,15,3.1,3.8,1.8,6.7,4.4,8.9,7.6V8h19l15.3,24.9,3.7,6.8h0l-.3-9.9V8h15.2v50.2h-19l-15.3-24.9-3.6-6.8h-.2l.3,9.9v21.7h-15.1v-10c-2.2,3.3-5.1,5.9-8.9,7.7-4.1,2-9.1,3-15,3s-10.8-1-15-3c-3.1-1.5-5.6-3.5-7.7-6-.6.9-1.3,1.7-2.1,2.5-2.4,2.3-5.3,4-8.7,5.1-3.4,1-7.1,1.5-11.3,1.5s-10.7-1-15-3c-4.2-2.1-7.4-5-9.6-8.9-2.3-3.9-3.4-8.5-3.4-13.9s1.1-10.1,3.4-13.9c2.3-3.9,5.5-6.8,9.6-8.8,4.2-2.1,9.2-3.1,14.9-3.1,4.1,0,7.8.5,11.2,1.5,3.4,1,6.3,2.6,8.7,4.7.9.8,1.7,1.7,2.4,2.7,2-2.4,4.6-4.4,7.6-5.8,4.2-2.1,9.3-3.1,15-3.1ZM494.1,7.2c4.1,0,7.8.5,11.2,1.5,1.3.4,2.5.8,3.6,1.4v-2.1h53.2v11.6h-17.8v38.6h-17.3V19.6h-8.7c.3.7.5,1.4.7,2.1.4,2.1.5,3.3.5,5.4h-15.6c-.6-3.2-1.7-5.4-3.3-6.5-1.5-1.1-3.5-1.6-5.9-1.6-2.3,0-4.2.5-5.9,1.6-1.6,1-2.8,2.6-3.7,4.6-.8,2-1.2,4.6-1.2,7.8s.4,5.7,1.1,7.8c.8,2.1,2,3.7,3.6,4.7,1.6,1,3.8,1.5,6.4,1.5s4.3-.6,5.9-1.8c1.6-1.2,2.6-3.1,3.1-5.7h16c0,1.4-.1,2.2-.5,3.7-1,3.7-2.7,6.7-5.2,9-2.4,2.3-5.3,4-8.8,5.1-3.4,1-7.2,1.5-11.3,1.5s-10.8-1-15-3c-1.5-.8-2.9-1.6-4.2-2.6v4.9h-46.3V8h45.2v5.8c1.5-1.4,3.3-2.5,5.3-3.5,4.2-2.1,9.2-3.1,15-3.1ZM406.6,32.8l3.7,6.8h0l-.3-9.9V8h15.2v50.2h-19l-15.3-24.9-3.6-6.8h-.2l.3,9.9v21.7h-15.1V8h19l15.3,24.9ZM247.7,19.1c-2.3,0-4.2.5-5.8,1.6-1.6,1-2.8,2.6-3.6,4.6-.8,2-1.2,4.6-1.2,7.8s.4,5.7,1.1,7.8c.8,2.1,2,3.7,3.6,4.7,1.6,1,3.8,1.5,6.3,1.5s4.3-.6,5.8-1.8c1.6-1.2,2.6-3.1,3.1-5.7h7.6c-.4-2-.6-4.2-.6-6.5s.2-4.1.5-5.9h-7.6c-.6-3.2-1.7-5.4-3.3-6.5-1.5-1.1-3.5-1.6-5.9-1.6ZM292.1,19.1c-2.3,0-4.2.5-5.8,1.6-1.5,1-2.6,2.5-3.4,4.6-.7,2-1.1,4.6-1.1,7.8s.4,5.8,1.1,7.8c.8,2,1.9,3.6,3.4,4.6,1.5,1,3.5,1.5,5.8,1.5s4.2-.5,5.7-1.5c1.5-1.1,2.7-2.6,3.4-4.6.7-2.1,1.1-4.7,1.1-7.8s-.4-5.8-1.1-7.8c-.7-2-1.9-3.5-3.4-4.6-1.5-1.1-3.4-1.6-5.7-1.6ZM446,46.5h23.2c-1.3-2.4-2.2-5-2.7-8h-20.5v8ZM446,27.1h20.6c.5-2.8,1.4-5.3,2.6-7.5h-23.2v7.5Z"/>
    <path class="st3" d="M188.8.4c1.1.1,1.8.3,3.5,1.1,1.7.7,2.3,1.1,3.2,1.8.6.5,1.4,1.2,1.7,1.5.3.3.8,1.1,1.2,1.7.4.6,1.9,3.5,3.3,6.2,1.4,2.8,4.1,8.2,5.9,11.9l.3.5c.6,0,1.2.2,1.8.4,3.1,1.2,4.6,4.7,3.4,7.8s-4.7,4.6-7.8,3.4c-3.1-1.2-4.6-4.7-3.4-7.8s.4-.8.6-1.2c-1.1-2.2-3-6.1-4.5-9.1-1.6-3.2-3.4-6.7-3.9-7.9-.6-1.1-1.4-2.4-1.8-2.8-.4-.4-1.1-1-1.6-1.3-.7-.4-1.1-.6-2.1-.7-.7,0-1.5,0-2,0s-1.9.6-3.4,1.2c-1.9.7-2.9,1.2-3.4,1.7-.5.4-.9,1-1.1,1.5-.2.5-.3,1.3-.4,2,0,.8.2,1.6.6,2.5.3.7,1.3,2.7,2.1,4.4.3.7,1.9,3.7,3.6,7.3.4,0,.7.2,1.1.3,3.1,1.2,4.6,4.7,3.4,7.8s-.1.3-.2.5c1.1,2.2,1.9,3.8,2.1,4.2l.6,1.3c.3.8,1.4,2.9,2.3,4.8.9,1.9,1.9,3.9,2,4.5.2.6.4,1.7.5,2.5,0,.8,0,2,0,2.6-.1.7-.4,1.6-.6,2.1s-.7,1.4-1.1,1.9c-.4.6-1.1,1.3-1.6,1.7-.5.4-1.3,1-1.8,1.3-.5.3-1.9.9-3,1.4-1.1.5-2.7,1-3.4,1.2-.7.2-2,.4-2.8.5-.9,0-2.1,0-3.1-.2-1.1-.2-2.1-.5-2.8-.9-.6-.3-1.5-.8-2-1.2-.5-.3-1.2-1-1.7-1.4-.5-.4-1.2-1.3-1.7-2-.5-.7-2.3-4.2-4.1-7.8-1.8-3.6-4.1-8.2-5-10.1-.5-.9-1.1-2.2-2-4-.6,0-1.1-.2-1.7-.4-3.1-1.2-4.6-4.7-3.4-7.8s4.7-4.6,7.8-3.4c3.1,1.2,4.6,4.7,3.4,7.8s-.4.9-.7,1.3c.6,1.3,1.4,2.7,2,3.9,1,2.1,2.6,5.2,3.5,6.9.9,1.7,1.9,3.8,2.3,4.6.4.8,1.2,2.4,1.7,3.4.5,1.1,1.2,2.3,1.4,2.6.2.4.8,1,1.4,1.5.8.6,1.2.9,2.1,1.2.8.2,1.5.3,2.4.2.8,0,2.2-.5,3.8-1.2,1.8-.7,2.8-1.2,3.4-1.8s.9-1,1.2-1.7.3-1.2.3-2.1c0-.6-.4-1.8-.8-2.7-.4-.9-1.4-3-2.3-4.7-.9-1.7-1.7-3.3-1.8-3.5l-1.7-3.4c-.8,0-1.7,0-2.5-.4-3.1-1.2-4.6-4.7-3.4-7.8s.6-1.2,1-1.7l-2-4c-.4-.8-1.2-2.4-1.8-3.7-.6-1.3-1.5-3.1-1.9-4.1-.6-1.3-.8-2.2-1-3.4,0-.9-.1-2.1,0-2.7,0-.6.3-1.7.7-2.5s.8-1.8,1.2-2.3c.4-.5,1-1.2,1.5-1.6.5-.5,1.7-1.2,3.1-1.8,1.2-.6,3.1-1.3,4.1-1.6,1-.3,2.4-.6,3.1-.7.7,0,1.9,0,2.7,0Z"/>
    <path class="st2" d="M188.7,0c1.1.1,1.8.3,3.5,1.1,1.7.7,2.3,1.1,3.3,1.9.6.5,1.4,1.2,1.7,1.5.3.3.9,1.1,1.3,1.7.4.6,1.9,3.5,3.3,6.3,1.4,2.8,4.1,8.2,6,11.9l.3.5c.6,0,1.2.2,1.8.4,3.1,1.2,4.6,4.7,3.4,7.8s-4.7,4.6-7.8,3.4c-3.1-1.2-4.6-4.7-3.4-7.8s.4-.8.6-1.2c-1.1-2.2-3.1-6.1-4.5-9.1-1.6-3.2-3.4-6.8-4-7.9-.6-1.1-1.4-2.4-1.8-2.8-.4-.4-1.1-1-1.6-1.3-.7-.4-1.1-.6-2.1-.7-.7,0-1.6,0-2,0s-1.9.6-3.4,1.2c-1.9.7-2.9,1.3-3.4,1.7-.5.4-.9,1-1.1,1.5-.2.5-.3,1.3-.4,2,0,.8.2,1.6.6,2.5.3.7,1.3,2.7,2.1,4.4.3.7,1.9,3.7,3.7,7.3.4,0,.7.2,1.1.3,3.1,1.2,4.6,4.7,3.4,7.8s-.1.3-.2.5c1.1,2.2,1.9,3.9,2.1,4.2l.7,1.4c.4.8,1.4,2.9,2.4,4.8.9,1.9,1.9,3.9,2.1,4.5.2.6.4,1.7.5,2.5,0,.8,0,2,0,2.6-.1.7-.4,1.6-.6,2.1s-.7,1.4-1.1,1.9c-.4.6-1.1,1.3-1.6,1.7-.5.4-1.3,1-1.8,1.3-.5.3-1.9.9-3,1.4-1.1.5-2.7,1-3.4,1.2-.7.2-2,.4-2.8.5-.9,0-2.2,0-3.2-.2-1.1-.2-2.1-.5-2.9-.9-.6-.3-1.5-.8-2-1.2-.5-.3-1.2-1-1.7-1.4-.5-.4-1.3-1.3-1.7-2-.5-.7-2.3-4.2-4.1-7.8-1.8-3.6-4.1-8.2-5.1-10.2-.5-1-1.1-2.2-2-4-.6,0-1.1-.2-1.7-.4-3.1-1.2-4.6-4.7-3.4-7.8,1.2-3.1,4.7-4.6,7.8-3.4,3.1,1.2,4.6,4.7,3.4,7.8s-.4.9-.7,1.3c.6,1.3,1.4,2.7,2,3.9,1,2.1,2.6,5.2,3.5,7,.9,1.7,1.9,3.8,2.3,4.6.4.8,1.2,2.4,1.7,3.4.5,1.1,1.2,2.3,1.4,2.6.2.4.9,1,1.4,1.5.8.6,1.2.9,2.1,1.2.8.2,1.5.3,2.4.2.8,0,2.2-.5,3.8-1.2,1.8-.7,2.8-1.3,3.4-1.8s.9-1,1.2-1.7.3-1.2.3-2.1c0-.6-.4-1.8-.8-2.7-.4-.9-1.4-3-2.3-4.7-.9-1.8-1.7-3.3-1.8-3.5l-1.7-3.4c-.8,0-1.7,0-2.5-.4-3.1-1.2-4.6-4.7-3.4-7.8s.6-1.2,1-1.7l-2-4c-.4-.8-1.2-2.5-1.9-3.7-.6-1.3-1.5-3.1-2-4.1-.6-1.3-.8-2.3-1-3.4,0-.9-.1-2.1,0-2.7,0-.6.3-1.7.7-2.5s.8-1.8,1.2-2.3c.4-.5,1-1.2,1.5-1.6.5-.5,1.7-1.2,3.1-1.8,1.2-.6,3.1-1.3,4.1-1.6,1-.3,2.4-.6,3.1-.7.7,0,1.9,0,2.7,0Z"/>
  </g>
</svg>