<svg xmlns="http://www.w3.org/2000/svg" version="1.1" xmlns:xlink="http://www.w3.org/1999/xlink" width="59" height="64.9"><svg xmlns="http://www.w3.org/2000/svg" version="1.1" xmlns:xlink="http://www.w3.org/1999/xlink" width="59" height="64.9"><svg id="Layer_1" xmlns="http://www.w3.org/2000/svg" xmlns:xlink="http://www.w3.org/1999/xlink" version="1.1" viewBox="0 0 59 64.9">
  <!-- Generator: Adobe Illustrator 30.1.0, SVG Export Plug-In . SVG Version: 2.1.1 Build 136)  -->
  <defs>
    <style>
      .st0 {
        fill: url(#linear-gradient);
      }
    </style>
    <linearGradient id="linear-gradient" x1="10.1" y1="9.1" x2="50" y2="55.1" gradientTransform="translate(14.5 -8.7) rotate(22.5)" gradientUnits="userSpaceOnUse">
      <stop offset="0" stop-color="#eba904"></stop>
      <stop offset=".2" stop-color="#e5a503"></stop>
      <stop offset=".5" stop-color="#d79a02"></stop>
      <stop offset=".8" stop-color="#bf8901"></stop>
      <stop offset="1" stop-color="#ad7c00"></stop>
    </linearGradient>
  </defs>
  <path class="st0" d="M34.9.1c1.1.2,1.8.4,3.5,1.1,1.7.8,2.3,1.1,3.2,1.9.6.5,1.4,1.3,1.6,1.6.3.3.8,1.1,1.2,1.7.4.7,1.8,3.5,3.1,6.3,1.3,2.8,3.9,8.2,5.7,12l.3.5c.6,0,1.2.2,1.8.4,3.1,1.3,4.5,4.8,3.2,7.8s-4.8,4.5-7.8,3.2-4.5-4.8-3.2-7.8.4-.8.6-1.2c-1.1-2.2-2.9-6.2-4.3-9.2-1.5-3.2-3.2-6.8-3.8-7.9-.5-1.1-1.3-2.4-1.7-2.8-.4-.5-1.1-1.1-1.6-1.4-.7-.4-1.1-.6-2.1-.7-.7-.1-1.5-.1-2,0s-1.9.6-3.4,1.1c-1.9.7-2.9,1.2-3.4,1.6-.5.4-.9,1-1.1,1.5-.2.5-.4,1.3-.4,2,0,.8.1,1.6.5,2.5.3.7,1.2,2.7,2,4.4.3.7,1.8,3.8,3.5,7.3.4,0,.7.2,1.1.3,3.1,1.3,4.5,4.8,3.2,7.8s-.1.3-.2.5c1.1,2.2,1.8,3.9,2,4.2l.6,1.4c.3.8,1.4,2.9,2.2,4.8.9,1.9,1.8,3.9,1.9,4.6.2.6.4,1.8.4,2.5,0,.8,0,2-.1,2.6-.1.7-.4,1.6-.6,2.1s-.7,1.4-1.1,1.9c-.4.6-1.1,1.3-1.6,1.7-.5.4-1.3.9-1.8,1.2-.5.3-1.9.9-3,1.3-1.1.4-2.7.9-3.4,1.1-.7.2-2,.4-2.8.4-.9,0-2.1,0-3.1-.3-1.1-.2-2.1-.6-2.8-1-.6-.3-1.5-.9-2-1.2-.4-.3-1.2-1-1.7-1.4-.5-.5-1.2-1.4-1.7-2-.4-.7-2.2-4.2-3.9-7.9-1.7-3.7-3.9-8.3-4.8-10.2-.5-1-1.1-2.3-1.9-4.1-.6,0-1.1-.2-1.7-.4-3.1-1.3-4.5-4.8-3.2-7.8s4.8-4.5,7.8-3.2c3.1,1.3,4.5,4.8,3.2,7.8s-.4.9-.7,1.3c.6,1.3,1.3,2.7,1.9,4,1,2.1,2.5,5.3,3.3,7,.8,1.8,1.8,3.9,2.2,4.7.4.8,1.1,2.4,1.6,3.5.5,1.1,1.1,2.3,1.4,2.7.2.4.8,1.1,1.3,1.5.7.6,1.2.9,2.1,1.2.8.2,1.5.3,2.4.3.8,0,2.2-.5,3.8-1.1,1.8-.7,2.8-1.2,3.4-1.7s.9-1,1.2-1.6.4-1.2.3-2c0-.6-.4-1.8-.7-2.7-.4-.9-1.3-3-2.2-4.8-.8-1.8-1.6-3.4-1.7-3.5l-1.6-3.5c-.8,0-1.7-.1-2.5-.5-3.1-1.3-4.5-4.8-3.2-7.8s.6-1.2,1.1-1.7l-1.9-4c-.4-.8-1.1-2.5-1.8-3.8-.6-1.3-1.4-3.1-1.9-4.1-.5-1.3-.8-2.3-.9-3.4,0-.9,0-2.1,0-2.7,0-.6.4-1.6.7-2.5s.9-1.8,1.3-2.2c.4-.4,1.1-1.2,1.6-1.6.5-.5,1.8-1.1,3.2-1.7,1.2-.6,3.1-1.2,4.1-1.5,1-.3,2.4-.6,3.1-.6.7,0,1.9,0,2.7,0Z"></path>
</svg></svg><style>@media (prefers-color-scheme: light) { :root { filter: none; } }
@media (prefers-color-scheme: dark) { :root { filter: none; } }
</style></svg>