<?xml version="1.0" encoding="UTF-8"?>
<svg id="Layer_1" xmlns="http://www.w3.org/2000/svg" version="1.1" viewBox="0 0 523.676 523.676">
  <!-- Generator: Adobe Illustrator 30.1.0, SVG Export Plug-In . SVG Version: 2.1.1 Build 136)  -->
  <path d="M14.639,14.639c19.525-19.519,51.175-19.519,70.7,0l176.8,176.8L438.939,14.639c19.862-19.184,51.516-18.634,70.7,1.228,18.714,19.376,18.714,50.095,0,69.472l-176.8,176.8,176.8,176.8c19.184,19.862,18.635,51.516-1.227,70.7-19.376,18.715-50.096,18.715-69.473,0l-176.8-176.8-176.8,176.8c-19.862,19.184-51.516,18.634-70.7-1.228-18.715-19.376-18.715-50.096,0-69.472l176.8-176.8L14.639,85.339C-4.88,65.814-4.88,34.164,14.639,14.639h0Z"/>
</svg>